<svg xmlns="http://www.w3.org/2000/svg" width="18" height="18" viewBox="0 0 28.797 24.203">
  <path id="share" d="M5.587,33.121a1,1,0,0,1-.325-.052,1.049,1.049,0,0,1-.724-1.049c0-.157,1.08-15.383,16.348-16.579V9.968a1.049,1.049,0,0,1,1.8-.734L33.035,19.8a1.049,1.049,0,0,1,0,1.468l-10.35,10.57a1.049,1.049,0,0,1-1.8-.734V25.739c-10.193.388-14.371,6.816-14.413,6.895a1.049,1.049,0,0,1-.886.488Zm17.4-20.584v3.885a1.049,1.049,0,0,1-1.012,1.049c-9.878.362-13.412,6.942-14.681,11.173A21.689,21.689,0,0,1,21.872,23.61h.047a1.049,1.049,0,0,1,1.049,1.049v3.885l7.865-8Z" transform="translate(-4.538 -8.918)"/>
</svg>
